<svg xmlns="http://www.w3.org/2000/svg" width="32" height="37.5" viewBox="0 0 32 37.5">
  <g id="icon-gift.svg" transform="translate(-25 -1515)">
    <path id="Color_Overlay" data-name="Color Overlay" d="M26.577,1552.5v-17.979H26.44A1.432,1.432,0,0,1,25,1533.1v-5.586a1.432,1.432,0,0,1,1.439-1.416H37.652c-2.446-1.339-6.165-3.016-7.291-5.669-1.173-2.763,1.716-5.243,3.73-5.418a3.687,3.687,0,0,1,2.884,1c2.176,1.936,3.107,5.757,4.069,8.752.753-2.96,1.538-7.055,4.325-8.086a3.972,3.972,0,0,1,5,2.668c.255,1.2-.3,3.349-7.205,6.753h12.4A1.433,1.433,0,0,1,57,1527.519v5.586a1.432,1.432,0,0,1-1.44,1.416h-.053V1552.5Zm17.752-1.466h9.688v-16.513H44.329Zm-16.259,0h9.687v-16.513H28.069Zm11.18,0h3.587V1527.6H39.249Zm5.08-18.011H55.476V1527.6H44.329Zm-17.8,0H37.756V1527.6H26.524Zm5.024-14c-.052,1.648,2.109,3.1,3.221,3.835a34.8,34.8,0,0,0,4.748,2.416c-.7-2.689-1.633-6.505-3.561-8.169a2.164,2.164,0,0,0-1.441-.511C33.1,1516.589,31.588,1517.721,31.548,1519.017Zm14.666-1.084c-2.284.333-3.118,4.933-3.56,6.753,1.181-.7,2.384-1.14,3.646-2,.843-.575,2.74-1.808,2.543-3.168a2.453,2.453,0,0,0-2.359-1.6A1.886,1.886,0,0,0,46.214,1517.933Z" fill="#81b3d2"/>
  </g>
</svg>
