<svg xmlns="http://www.w3.org/2000/svg" width="37.499" height="36" viewBox="0 0 37.499 36">
  <g id="icon-house.svg" transform="translate(-14.819 -1416.133)">
    <path id="Color_Overlay" data-name="Color Overlay" d="M24.817,1422.133v-1.462h1.976v-18.81l-3.931,3.9-1.043-1.034,18.752-18.591,6.84,6.783v-6.549h6.934v13.425l4.973,4.932-1.041,1.034-3.932-3.9v18.81h2.54v1.462Zm3.451-21.733v20.271h24.6V1400.4l-12.3-12.192Zm20.617-6.021,3.985,3.952v-10.5H48.885Zm-12.255,24.27v-11.911h8.033v11.911Zm1.475-1.462h5.083V1408.2H38.105Zm11.218-5.5v-1.96h1.506v1.96Zm-2.981,0v-1.96h1.506v1.96Zm-13.054,0v-1.96h1.507v1.96Zm-2.981,0v-1.96h1.507v1.96Zm19.015-2.986v-1.959h1.506v1.959Zm-2.981,0v-1.959h1.506v1.959Zm-13.054,0v-1.959h1.507v1.959Zm-2.981,0v-1.959h1.507v1.959Zm6.448-9.024a3.891,3.891,0,1,1,3.891,3.856A3.874,3.874,0,0,1,36.756,1399.673Zm1.4,0a2.5,2.5,0,1,0,2.495-2.473A2.484,2.484,0,0,0,38.152,1399.674Z" transform="translate(-7 30)" fill="#81b3d2"/>
  </g>
</svg>
