<svg xmlns="http://www.w3.org/2000/svg" width="18" height="14.001" viewBox="0 0 18 14.001">
  <g id="icon-twitter.svg" transform="translate(-98 -3482)">
    <g id="icon-twitter.svg-2" data-name="icon-twitter.svg" transform="translate(98 3482)">
      <g id="W6EeEF">
        <g id="Сгруппировать_5" data-name="Сгруппировать 5">
          <path id="Контур_18" data-name="Контур 18" d="M11.605.146a3.529,3.529,0,0,1,3.79,1.1c.714-.215,1.411-.449,2.131-.659a2.119,2.119,0,0,1-.908,1.65A1.755,1.755,0,0,0,18,1.776a2.828,2.828,0,0,1-1.657,1.888C16.1,9.958,12.977,14.124,5.664,14H5.191c-.434,0-4.413-.43-5.191-1.76a7.15,7.15,0,0,0,4.973-1.1c-1.017-.28-2.84-.443-3.158-2.75A2.362,2.362,0,0,0,3.079,8.5C1.807,7.7.4,7.033.474,4.982a2.2,2.2,0,0,0,1.42.44C1.149,5.2-.193,2.29.947.8c1.927,1.73,3.958,3.362,7.58,3.519A4.425,4.425,0,0,1,11.605.146Z"/>
        </g>
      </g>
    </g>
    <path id="Color_Overlay" data-name="Color Overlay" d="M103.665,3496h-.473c-.434,0-4.413-.43-5.191-1.76a7.15,7.15,0,0,0,4.973-1.1c-1.018-.28-2.84-.443-3.158-2.75a2.369,2.369,0,0,0,1.264.111c-1.272-.8-2.683-1.468-2.6-3.519a2.2,2.2,0,0,0,1.42.44c-.745-.224-2.088-3.133-.947-4.618,1.926,1.731,3.957,3.362,7.579,3.519a4.426,4.426,0,0,1,3.079-4.178,3.529,3.529,0,0,1,3.79,1.1c.714-.214,1.411-.448,2.131-.659a2.119,2.119,0,0,1-.908,1.651,1.754,1.754,0,0,0,1.381-.46,2.828,2.828,0,0,1-1.657,1.888c-.242,6.2-3.275,10.337-10.358,10.337C103.879,3496,103.773,3496,103.665,3496Z" fill="#fff"/>
  </g>
</svg>
