<svg xmlns="http://www.w3.org/2000/svg" width="38.5" height="34" viewBox="0 0 38.5 34">
  <g id="icon-burger.svg" transform="translate(-18.819 -1631.633)">
    <path id="Color_Overlay" data-name="Color Overlay" d="M26.466,1665.634a4.969,4.969,0,0,1-5.015-4.892v-.511h-.483a2.13,2.13,0,0,1-2.149-2.1v-1.7a2.13,2.13,0,0,1,2.149-2.1h34.2a2.13,2.13,0,0,1,2.149,2.1v1.7a2.13,2.13,0,0,1-2.149,2.1h-.483v.511a4.97,4.97,0,0,1-5.015,4.892Zm-3.5-4.892a3.46,3.46,0,0,0,3.5,3.413H49.672a3.46,3.46,0,0,0,3.5-3.413v-.511h-30.2Zm-2.632-4.31v1.7a.634.634,0,0,0,.633.617h34.2a.634.634,0,0,0,.633-.617v-1.7a.634.634,0,0,0-.633-.617h-34.2A.634.634,0,0,0,20.336,1656.431Zm28.8-6.133-2.77,1.972L43.6,1650.3l-2.769,1.972-2.769-1.972-2.769,1.972-2.769-1.972-2.768,1.972-2.767-1.972-2.767,1.972L21,1649.98l.895-1.194,2.322,1.654,2.768-1.973,2.766,1.973,2.768-1.972,2.769,1.972,2.769-1.972,2.769,1.972,2.769-1.972,2.769,1.972,2.77-1.972,2.775,1.972,2.325-1.654.894,1.2-3.218,2.29Zm-27.652-3.335c-.022-.3-.028-1.29-.019-1.479.345-7.7,7.644-13.852,16.6-13.852s16.256,6.151,16.6,13.852c.009.189,0,1.178-.019,1.479Zm1.5-1.479H53.153c-.349-6.873-6.98-12.373-15.084-12.373S23.334,1638.612,22.984,1645.485Zm14.074-6.436a1.011,1.011,0,1,1,1.011.986A1,1,0,0,1,37.058,1639.049ZM41.1,1636.6a1.011,1.011,0,1,1,1.011.986A1,1,0,0,1,41.1,1636.6Zm-8.087,0a1.011,1.011,0,1,1,1.011.986A1,1,0,0,1,33.015,1636.6Z" fill="#81b3d2"/>
  </g>
</svg>
