<svg xmlns="http://www.w3.org/2000/svg" width="27.03" height="34.007" viewBox="0 0 27.03 34.007">
  <g id="htmlacademy.svg" transform="translate(-196.94 -3552.972)">
    <g id="htmlacademy.svg-2" data-name="htmlacademy.svg" transform="translate(98.399 3500.329)">
      <path id="Контур_22" data-name="Контур 22" d="M112.2,52.746l-.141-.015-13.427,1.4V78.6l13.428,7.945L125.483,78.6V54.131Zm11.53,24.865-11.671,6.905-11.671-6.905V67.58l11.621,6.878.019,1.246-7.972-4.718-.012,1.21,8,4.783.02,1.28-8-4.733-.012,1.21,8,4.783,8.081-4.808V73.5l-.01.006V69.55l3.6-2.138Zm-.009-11.5-3.193,1.871-1.474.864-7.03-4.158-.012,1.21,6.008,3.553-.053.031-.129.076-.854.5-4.961-2.934-.012,1.21,3.915,2.315-.924.615-.022.013-2.958-1.732-.012,1.21,1.941,1.136-1.977,1.18L100.41,66.234l11.58-6.921h0Zm.009-1.217-11.734-6.878v0h0v0l-11.605,6.87V55.7l11.671-1.217L123.727,55.7Z" stroke="#231f20" stroke-miterlimit="10" stroke-width="0.175"/>
    </g>
    <path id="Color_Overlay" data-name="Color Overlay" d="M197.027,3578.933V3554.46l13.428-1.4.141.014,13.287,1.385v24.473l-13.428,7.945Zm1.757-.993,11.671,6.905,11.671-6.905v-10.2l-3.6,2.138v3.953l.01-.006v1.215l-8.08,4.808-8-4.783.011-1.21,8,4.733-.02-1.28-8-4.783.013-1.211,7.972,4.718-.02-1.246-11.621-6.878Zm.025-11.377,11.563,6.835,1.977-1.18-1.94-1.137.011-1.21,2.958,1.733.023-.014.924-.615-3.915-2.315.011-1.21,4.961,2.935.853-.5.13-.076.053-.031-6.008-3.553.011-1.21,7.03,4.158,1.475-.863,3.193-1.87-11.728-6.8v0Zm11.583-8.219,11.734,6.878v-9.188l-11.671-1.217-11.671,1.217v9.18l11.605-6.87v0h0Z"/>
  </g>
</svg>
